<?xml version="1.0" encoding="UTF-8"?>
<svg xmlns="http://www.w3.org/2000/svg" xmlns:xlink="http://www.w3.org/1999/xlink" width="px" height="px" viewBox="0 0 942 87" version="1.1">
<g id="surface1">
<path style=" stroke:none;fill-rule:nonzero;fill:rgb(93.72549%,94.117647%,96.862745%);fill-opacity:1;" d="M 139.894531 34.355469 L 374.125 34.355469 C 378.339844 34.355469 381.757812 37.773438 381.757812 41.988281 C 381.757812 46.207031 378.339844 49.625 374.125 49.625 L 139.894531 49.625 C 135.679688 49.625 132.261719 46.207031 132.261719 41.988281 C 132.261719 37.773438 135.679688 34.355469 139.894531 34.355469 Z M 139.894531 34.355469 "/>
<path style=" stroke:none;fill-rule:nonzero;fill:rgb(29.019608%,22.745098%,100%);fill-opacity:1;" d="M 139.925781 34.5 L 374.300781 34.5 C 378.441406 34.5 381.796875 37.859375 381.796875 42 C 381.796875 46.140625 378.441406 49.5 374.300781 49.5 L 139.925781 49.5 C 135.785156 49.5 132.429688 46.140625 132.429688 42 C 132.429688 37.859375 135.785156 34.5 139.925781 34.5 Z M 139.925781 34.5 "/>
<path style=" stroke:none;fill-rule:nonzero;fill:rgb(93.72549%,94.117647%,96.862745%);fill-opacity:1;" d="M 567.429688 34.355469 L 801.660156 34.355469 C 805.875 34.355469 809.292969 37.773438 809.292969 41.988281 C 809.292969 46.207031 805.875 49.625 801.660156 49.625 L 567.429688 49.625 C 563.214844 49.625 559.796875 46.207031 559.796875 41.988281 C 559.796875 37.773438 563.214844 34.355469 567.429688 34.355469 Z M 567.429688 34.355469 "/>
<path style=" stroke:none;fill-rule:nonzero;fill:rgb(29.019608%,22.745098%,100%);fill-opacity:1;" d="M 567.199219 34.5 L 801.574219 34.5 C 805.714844 34.5 809.070312 37.859375 809.070312 42 C 809.070312 46.140625 805.714844 49.5 801.574219 49.5 L 567.199219 49.5 C 563.058594 49.5 559.703125 46.140625 559.703125 42 C 559.703125 37.859375 563.058594 34.5 567.199219 34.5 Z M 567.199219 34.5 "/>
<path style=" stroke:none;fill-rule:nonzero;fill:rgb(29.019608%,22.745098%,100%);fill-opacity:1;" d="M 86.480469 43.261719 C 86.480469 67.15625 67.121094 86.523438 43.238281 86.523438 C 19.359375 86.523438 0 67.15625 0 43.261719 C 0 19.371094 19.359375 0 43.238281 0 C 67.121094 0 86.480469 19.371094 86.480469 43.261719 Z M 86.480469 43.261719 "/>
<path style=" stroke:none;fill-rule:nonzero;fill:rgb(100%,100%,100%);fill-opacity:1;" d="M 41.429688 56.15625 L 41.429688 32.539062 L 36.828125 33.597656 L 36.828125 30.421875 L 43.136719 27.652344 L 45.90625 27.652344 L 45.90625 56.15625 Z M 41.429688 56.15625 "/>
<path style=" stroke:none;fill-rule:nonzero;fill:rgb(93.72549%,94.117647%,96.862745%);fill-opacity:1;" d="M 514.015625 43.261719 C 514.015625 67.15625 494.65625 86.523438 470.777344 86.523438 C 446.898438 86.523438 427.539062 67.15625 427.539062 43.261719 C 427.539062 19.371094 446.898438 0 470.777344 0 C 494.65625 0 514.015625 19.371094 514.015625 43.261719 Z M 514.015625 43.261719 "/>
<path style=" stroke:none;fill-rule:nonzero;fill:rgb(43.529412%,42.352941%,56.470588%);fill-opacity:1;" d="M 463.167969 54.519531 L 463.167969 52.117188 C 465.09375 50.597656 466.910156 49.066406 468.621094 47.515625 C 470.355469 45.941406 471.890625 44.394531 473.21875 42.875 C 474.574219 41.355469 475.632812 39.863281 476.394531 38.398438 C 477.179688 36.929688 477.574219 35.519531 477.574219 34.160156 C 477.574219 33.15625 477.398438 32.222656 477.042969 31.351562 C 476.71875 30.484375 476.175781 29.792969 475.417969 29.277344 C 474.65625 28.734375 473.625 28.460938 472.324219 28.460938 C 471.074219 28.460938 470.03125 28.746094 469.191406 29.316406 C 468.347656 29.859375 467.710938 30.59375 467.277344 31.515625 C 466.871094 32.4375 466.667969 33.429688 466.667969 34.488281 L 463.371094 34.488281 C 463.371094 32.613281 463.765625 31.011719 464.550781 29.683594 C 465.335938 28.324219 466.410156 27.292969 467.765625 26.589844 C 469.121094 25.882812 470.65625 25.53125 472.363281 25.53125 C 474.886719 25.53125 476.949219 26.25 478.550781 27.6875 C 480.179688 29.097656 480.992188 31.214844 480.992188 34.039062 C 480.992188 35.722656 480.570312 37.390625 479.730469 39.046875 C 478.890625 40.675781 477.816406 42.265625 476.515625 43.8125 C 475.214844 45.332031 473.816406 46.757812 472.324219 48.085938 C 470.859375 49.417969 469.488281 50.613281 468.214844 51.671875 L 481.96875 51.671875 L 481.96875 54.519531 Z M 463.167969 54.519531 "/>
<path style=" stroke:none;fill-rule:nonzero;fill:rgb(29.019608%,22.745098%,100%);fill-opacity:1;" d="M 514.253906 43.261719 C 514.253906 67.15625 494.894531 86.523438 471.011719 86.523438 C 447.132812 86.523438 427.773438 67.15625 427.773438 43.261719 C 427.773438 19.371094 447.132812 0 471.011719 0 C 494.894531 0 514.253906 19.371094 514.253906 43.261719 Z M 514.253906 43.261719 "/>
<path style=" stroke:none;fill-rule:nonzero;fill:rgb(100%,100%,100%);fill-opacity:1;" d="M 461.078125 57.5 L 461.078125 54.40625 C 462.921875 52.941406 464.683594 51.460938 466.367188 49.96875 C 468.046875 48.472656 469.539062 47.007812 470.84375 45.570312 C 472.171875 44.105469 473.21875 42.679688 473.976562 41.292969 C 474.738281 39.882812 475.117188 38.527344 475.117188 37.222656 C 475.117188 36.355469 474.96875 35.539062 474.667969 34.78125 C 474.371094 33.992188 473.882812 33.367188 473.203125 32.90625 C 472.523438 32.417969 471.617188 32.171875 470.476562 32.171875 C 468.769531 32.171875 467.480469 32.714844 466.609375 33.800781 C 465.769531 34.886719 465.363281 36.191406 465.390625 37.710938 L 461.199219 37.710938 C 461.226562 35.703125 461.644531 34.019531 462.460938 32.664062 C 463.300781 31.304688 464.414062 30.273438 465.796875 29.566406 C 467.207031 28.863281 468.792969 28.507812 470.558594 28.507812 C 473.246094 28.507812 475.386719 29.269531 476.988281 30.789062 C 478.617188 32.28125 479.429688 34.371094 479.429688 37.058594 C 479.429688 38.660156 479.035156 40.25 478.25 41.824219 C 477.488281 43.398438 476.488281 44.917969 475.238281 46.382812 C 474.015625 47.824219 472.703125 49.179688 471.289062 50.457031 C 469.878906 51.730469 468.539062 52.886719 467.261719 53.917969 L 480.285156 53.917969 L 480.285156 57.5 Z M 461.078125 57.5 "/>
<path style=" stroke:none;fill-rule:nonzero;fill:rgb(93.72549%,94.117647%,96.862745%);fill-opacity:1;" d="M 941.554688 43.261719 C 941.554688 67.15625 922.195312 86.523438 898.3125 86.523438 C 874.433594 86.523438 855.074219 67.15625 855.074219 43.261719 C 855.074219 19.371094 874.433594 0 898.3125 0 C 922.195312 0 941.554688 19.371094 941.554688 43.261719 Z M 941.554688 43.261719 "/>
<path style=" stroke:none;fill-rule:nonzero;fill:rgb(43.529412%,42.352941%,56.470588%);fill-opacity:1;" d="M 897.480469 55.007812 C 895.664062 55.007812 894.019531 54.683594 892.554688 54.03125 C 891.09375 53.351562 889.914062 52.347656 889.019531 51.019531 C 888.148438 49.6875 887.6875 48.03125 887.632812 46.050781 L 891.09375 46.050781 C 891.117188 47.679688 891.6875 49.089844 892.800781 50.285156 C 893.914062 51.453125 895.476562 52.035156 897.480469 52.035156 C 899.488281 52.035156 900.992188 51.480469 901.996094 50.367188 C 903.03125 49.253906 903.546875 47.910156 903.546875 46.335938 C 903.546875 45.007812 903.21875 43.921875 902.566406 43.078125 C 901.945312 42.238281 901.089844 41.613281 900.003906 41.207031 C 898.949219 40.800781 897.777344 40.59375 896.503906 40.59375 L 894.390625 40.59375 L 894.390625 37.703125 L 896.503906 37.703125 C 898.347656 37.703125 899.789062 37.285156 900.816406 36.441406 C 901.875 35.601562 902.40625 34.417969 902.40625 32.898438 C 902.40625 31.625 901.984375 30.578125 901.140625 29.765625 C 900.328125 28.921875 899.109375 28.503906 897.480469 28.503906 C 895.910156 28.503906 894.644531 28.976562 893.695312 29.925781 C 892.746094 30.851562 892.214844 32.015625 892.105469 33.429688 L 888.648438 33.429688 C 888.734375 31.882812 889.136719 30.511719 889.871094 29.316406 C 890.632812 28.121094 891.660156 27.199219 892.964844 26.546875 C 894.265625 25.867188 895.769531 25.53125 897.480469 25.53125 C 899.328125 25.53125 900.855469 25.855469 902.082031 26.507812 C 903.324219 27.160156 904.265625 28.027344 904.890625 29.113281 C 905.539062 30.199219 905.863281 31.394531 905.863281 32.695312 C 905.863281 34.132812 905.46875 35.453125 904.683594 36.644531 C 903.894531 37.8125 902.714844 38.601562 901.140625 39.007812 C 902.824219 39.359375 904.226562 40.160156 905.335938 41.410156 C 906.449219 42.660156 907.003906 44.300781 907.003906 46.335938 C 907.003906 47.910156 906.640625 49.363281 905.902344 50.695312 C 905.199219 51.996094 904.140625 53.042969 902.730469 53.828125 C 901.320312 54.617188 899.566406 55.007812 897.480469 55.007812 Z M 897.480469 55.007812 "/>
<path style=" stroke:none;fill-rule:nonzero;fill:rgb(93.72549%,94.117647%,96.862745%);fill-opacity:1;" d="M 941.289062 43.261719 C 941.289062 67.15625 921.929688 86.523438 898.046875 86.523438 C 874.167969 86.523438 854.808594 67.15625 854.808594 43.261719 C 854.808594 19.371094 874.167969 0 898.046875 0 C 921.929688 0 941.289062 19.371094 941.289062 43.261719 Z M 941.289062 43.261719 "/>
<path style=" stroke:none;fill-rule:nonzero;fill:rgb(43.529412%,42.352941%,56.470588%);fill-opacity:1;" d="M 890.441406 54.519531 L 890.441406 52.117188 C 892.367188 50.597656 894.183594 49.066406 895.894531 47.515625 C 897.628906 45.941406 899.164062 44.394531 900.492188 42.875 C 901.851562 41.355469 902.90625 39.863281 903.664062 38.398438 C 904.453125 36.929688 904.84375 35.519531 904.84375 34.160156 C 904.84375 33.15625 904.667969 32.222656 904.320312 31.351562 C 903.988281 30.484375 903.449219 29.792969 902.691406 29.277344 C 901.929688 28.734375 900.898438 28.460938 899.597656 28.460938 C 898.347656 28.460938 897.304688 28.746094 896.464844 29.316406 C 895.625 29.859375 894.984375 30.59375 894.550781 31.515625 C 894.144531 32.4375 893.941406 33.429688 893.941406 34.488281 L 890.640625 34.488281 C 890.640625 32.613281 891.035156 31.011719 891.820312 29.683594 C 892.609375 28.324219 893.679688 27.292969 895.039062 26.589844 C 896.394531 25.882812 897.929688 25.53125 899.636719 25.53125 C 902.160156 25.53125 904.226562 26.25 905.824219 27.6875 C 907.453125 29.097656 908.261719 31.214844 908.261719 34.039062 C 908.261719 35.722656 907.84375 37.390625 907.003906 39.046875 C 906.164062 40.675781 905.089844 42.265625 903.789062 43.8125 C 902.484375 45.332031 901.085938 46.757812 899.597656 48.085938 C 898.132812 49.417969 896.765625 50.613281 895.484375 51.671875 L 909.242188 51.671875 L 909.242188 54.519531 Z M 890.441406 54.519531 "/>
<path style=" stroke:none;fill-rule:nonzero;fill:rgb(29.019608%,22.745098%,100%);fill-opacity:1;" d="M 941.527344 43.261719 C 941.527344 67.15625 922.167969 86.523438 898.289062 86.523438 C 874.40625 86.523438 855.046875 67.15625 855.046875 43.261719 C 855.046875 19.371094 874.40625 0 898.289062 0 C 922.167969 0 941.527344 19.371094 941.527344 43.261719 Z M 941.527344 43.261719 "/>
<path style=" stroke:none;fill-rule:nonzero;fill:rgb(100%,100%,100%);fill-opacity:1;" d="M 898.035156 57.988281 C 896.1875 57.988281 894.511719 57.664062 892.992188 57.011719 C 891.496094 56.332031 890.300781 55.316406 889.40625 53.957031 C 888.511719 52.601562 888.039062 50.902344 887.984375 48.867188 L 892.257812 48.867188 C 892.3125 50.386719 892.824219 51.675781 893.800781 52.734375 C 894.804688 53.765625 896.21875 54.285156 898.035156 54.285156 C 899.773438 54.285156 901.101562 53.808594 902.019531 52.859375 C 902.945312 51.882812 903.40625 50.671875 903.40625 49.234375 C 903.40625 47.496094 902.78125 46.207031 901.535156 45.367188 C 900.3125 44.523438 898.808594 44.105469 897.019531 44.105469 L 894.898438 44.105469 L 894.898438 40.519531 L 897.058594 40.519531 C 898.65625 40.519531 899.949219 40.140625 900.925781 39.378906 C 901.925781 38.621094 902.429688 37.546875 902.429688 36.164062 C 902.429688 34.996094 902.035156 34.046875 901.25 33.3125 C 900.492188 32.582031 899.40625 32.214844 897.992188 32.214844 C 896.527344 32.214844 895.375 32.648438 894.535156 33.515625 C 893.695312 34.359375 893.230469 35.417969 893.152344 36.691406 L 888.878906 36.691406 C 888.933594 35.039062 889.339844 33.597656 890.097656 32.378906 C 890.886719 31.15625 891.957031 30.207031 893.316406 29.527344 C 894.671875 28.847656 896.230469 28.507812 897.992188 28.507812 C 899.890625 28.507812 901.480469 28.847656 902.753906 29.527344 C 904.058594 30.179688 905.035156 31.074219 905.683594 32.214844 C 906.363281 33.328125 906.703125 34.546875 906.703125 35.878906 C 906.703125 37.398438 906.285156 38.730469 905.4375 39.871094 C 904.601562 41.007812 903.476562 41.769531 902.066406 42.148438 C 903.691406 42.503906 905.035156 43.304688 906.09375 44.550781 C 907.148438 45.773438 907.679688 47.359375 907.679688 49.316406 C 907.679688 50.890625 907.3125 52.34375 906.578125 53.671875 C 905.847656 54.976562 904.765625 56.019531 903.324219 56.808594 C 901.886719 57.59375 900.121094 57.988281 898.035156 57.988281 Z M 898.035156 57.988281 "/>
</g>
</svg>
